<?xml version="1.0" standalone="no"?>
<!DOCTYPE svg PUBLIC "-//W3C//DTD SVG 20010904//EN"
 "http://www.w3.org/TR/2001/REC-SVG-20010904/DTD/svg10.dtd">
<svg version="1.0" xmlns="http://www.w3.org/2000/svg"
 width="225.000000pt" height="225.000000pt" viewBox="0 0 225.000000 225.000000"
 preserveAspectRatio="xMidYMid meet">
<metadata>
Created by potrace 1.16, written by Peter Selinger 2001-2019
</metadata>
<g transform="translate(0.000000,225.000000) scale(0.100000,-0.100000)"
fill="#000000" stroke="none">
<path d="M323 2095 c-46 -20 -106 -103 -141 -197 -45 -120 -37 -243 22 -337
88 -138 425 -329 647 -365 33 -6 36 -4 52 29 9 20 17 37 17 39 0 2 -22 6 -48
9 -114 13 -361 125 -487 219 -127 96 -170 187 -147 310 13 69 55 158 93 194
l28 27 261 -254 c261 -254 338 -340 361 -403 l12 -34 36 16 c20 9 37 17 39 18
7 4 -42 91 -79 139 -54 72 -586 589 -613 596 -13 4 -36 1 -53 -6z"/>
<path d="M1653 2085 c-128 -35 -217 -129 -337 -357 -55 -103 -108 -247 -121
-323 -6 -39 -5 -41 30 -58 20 -9 37 -17 39 -17 2 0 6 25 10 54 18 157 178 465
294 567 90 79 213 87 341 23 37 -18 77 -45 90 -58 l24 -25 -242 -248 c-268
-275 -344 -344 -406 -370 l-42 -17 16 -38 c18 -43 19 -43 101 5 38 22 149 127
352 332 283 285 298 302 298 338 0 30 -7 44 -39 75 -75 72 -220 133 -316 131
-22 0 -64 -7 -92 -14z"/>
<path d="M821 1040 c-72 -40 -118 -79 -241 -206 -58 -59 -178 -181 -268 -269
-160 -159 -162 -162 -162 -205 0 -38 5 -48 42 -82 58 -54 169 -106 250 -119
123 -19 236 19 319 108 120 129 243 363 283 542 9 40 16 75 14 76 -7 6 -67 35
-73 35 -3 0 -5 -12 -5 -28 0 -100 -117 -363 -232 -520 -79 -107 -183 -154
-296 -133 -74 14 -166 57 -201 94 l-24 26 258 265 c275 282 316 318 423 373 6
2 -21 73 -28 73 -3 0 -29 -14 -59 -30z"/>
<path d="M1345 1025 c-8 -21 -15 -39 -15 -40 0 -1 25 -5 54 -9 134 -15 405
-147 530 -256 84 -74 117 -167 96 -274 -13 -68 -59 -162 -95 -196 l-24 -23
-261 254 c-255 248 -319 318 -355 389 -10 19 -19 37 -21 38 -4 5 -74 -18 -74
-24 0 -12 46 -93 73 -129 17 -22 159 -167 316 -322 272 -270 286 -283 322
-283 32 0 45 7 79 43 53 54 106 163 120 248 36 208 -82 358 -405 514 -111 54
-204 87 -282 100 -41 6 -42 6 -58 -30z"/>
</g>
</svg>
